<mxfile host="app.diagrams.net" agent="Mozilla/5.0 (Windows NT 10.0; Win64; x64) AppleWebKit/537.36 (KHTML, like Gecko) Chrome/129.0.0.0 Safari/537.36" version="24.7.17">
  <diagram name="Página-1" id="30S28V-sfpHmcAIecQgn">
    <mxGraphModel dx="472" dy="737" grid="1" gridSize="10" guides="1" tooltips="1" connect="1" arrows="1" fold="1" page="1" pageScale="1" pageWidth="827" pageHeight="1169" math="0" shadow="0">
      <root>
        <mxCell id="0" />
        <mxCell id="1" parent="0" />
        <mxCell id="teBmgloNEacWPZcQMbZP-2" value="Usuário" style="shape=umlLifeline;perimeter=lifelinePerimeter;whiteSpace=wrap;html=1;container=0;dropTarget=0;collapsible=0;recursiveResize=0;outlineConnect=0;portConstraint=eastwest;newEdgeStyle={&quot;edgeStyle&quot;:&quot;elbowEdgeStyle&quot;,&quot;elbow&quot;:&quot;vertical&quot;,&quot;curved&quot;:0,&quot;rounded&quot;:0};" parent="1" vertex="1">
          <mxGeometry x="90" y="80" width="100" height="300" as="geometry" />
        </mxCell>
        <mxCell id="teBmgloNEacWPZcQMbZP-3" value="" style="html=1;points=[];perimeter=orthogonalPerimeter;outlineConnect=0;targetShapes=umlLifeline;portConstraint=eastwest;newEdgeStyle={&quot;edgeStyle&quot;:&quot;elbowEdgeStyle&quot;,&quot;elbow&quot;:&quot;vertical&quot;,&quot;curved&quot;:0,&quot;rounded&quot;:0};" parent="teBmgloNEacWPZcQMbZP-2" vertex="1">
          <mxGeometry x="45" y="70" width="10" height="190" as="geometry" />
        </mxCell>
        <mxCell id="teBmgloNEacWPZcQMbZP-4" value="Busca" style="shape=umlLifeline;perimeter=lifelinePerimeter;whiteSpace=wrap;html=1;container=0;dropTarget=0;collapsible=0;recursiveResize=0;outlineConnect=0;portConstraint=eastwest;newEdgeStyle={&quot;edgeStyle&quot;:&quot;elbowEdgeStyle&quot;,&quot;elbow&quot;:&quot;vertical&quot;,&quot;curved&quot;:0,&quot;rounded&quot;:0};" parent="1" vertex="1">
          <mxGeometry x="280" y="80" width="100" height="300" as="geometry" />
        </mxCell>
        <mxCell id="teBmgloNEacWPZcQMbZP-5" value="" style="html=1;points=[];perimeter=orthogonalPerimeter;outlineConnect=0;targetShapes=umlLifeline;portConstraint=eastwest;newEdgeStyle={&quot;edgeStyle&quot;:&quot;elbowEdgeStyle&quot;,&quot;elbow&quot;:&quot;vertical&quot;,&quot;curved&quot;:0,&quot;rounded&quot;:0};" parent="teBmgloNEacWPZcQMbZP-4" vertex="1">
          <mxGeometry x="45" y="70" width="10" height="190" as="geometry" />
        </mxCell>
        <mxCell id="teBmgloNEacWPZcQMbZP-15" value="Busca por local" style="html=1;verticalAlign=bottom;endArrow=block;edgeStyle=elbowEdgeStyle;elbow=vertical;curved=0;rounded=0;" parent="1" source="teBmgloNEacWPZcQMbZP-3" target="teBmgloNEacWPZcQMbZP-5" edge="1">
          <mxGeometry x="0.0017" relative="1" as="geometry">
            <mxPoint x="150" y="170" as="sourcePoint" />
            <Array as="points">
              <mxPoint x="245" y="170" />
            </Array>
            <mxPoint x="320" y="170" as="targetPoint" />
            <mxPoint as="offset" />
          </mxGeometry>
        </mxCell>
        <mxCell id="teBmgloNEacWPZcQMbZP-16" value="Mostra popup na tela para pesquisa google" style="html=1;verticalAlign=bottom;endArrow=block;edgeStyle=elbowEdgeStyle;elbow=vertical;curved=0;rounded=0;" parent="1" edge="1">
          <mxGeometry x="0.2444" relative="1" as="geometry">
            <mxPoint x="280" y="260" as="sourcePoint" />
            <Array as="points">
              <mxPoint x="325" y="260" />
            </Array>
            <mxPoint x="144.99999999999994" y="260" as="targetPoint" />
            <mxPoint as="offset" />
          </mxGeometry>
        </mxCell>
        <mxCell id="_Tzph0EAAF1RlF3fVMPD-2" value="" style="rounded=0;whiteSpace=wrap;html=1;" parent="1" vertex="1">
          <mxGeometry x="330" y="200" width="10" height="60" as="geometry" />
        </mxCell>
        <mxCell id="_Tzph0EAAF1RlF3fVMPD-3" value="Local não existe" style="curved=1;endArrow=classic;html=1;rounded=0;entryX=1.203;entryY=0.429;entryDx=0;entryDy=0;entryPerimeter=0;" parent="1" source="teBmgloNEacWPZcQMbZP-5" target="_Tzph0EAAF1RlF3fVMPD-2" edge="1">
          <mxGeometry width="50" height="50" relative="1" as="geometry">
            <mxPoint x="340" y="170" as="sourcePoint" />
            <mxPoint x="390" y="120" as="targetPoint" />
            <Array as="points">
              <mxPoint x="380" y="170" />
              <mxPoint x="400" y="190" />
              <mxPoint x="400" y="220" />
              <mxPoint x="370" y="230" />
            </Array>
          </mxGeometry>
        </mxCell>
        <mxCell id="_Tzph0EAAF1RlF3fVMPD-4" value="Clica no botao para pesquisa" style="html=1;verticalAlign=bottom;endArrow=block;edgeStyle=elbowEdgeStyle;elbow=vertical;curved=0;rounded=0;" parent="1" edge="1">
          <mxGeometry x="0.0017" relative="1" as="geometry">
            <mxPoint x="140" y="290" as="sourcePoint" />
            <Array as="points">
              <mxPoint x="240" y="290" />
            </Array>
            <mxPoint x="320" y="290" as="targetPoint" />
            <mxPoint as="offset" />
          </mxGeometry>
        </mxCell>
        <mxCell id="_Tzph0EAAF1RlF3fVMPD-5" value="Retorna a pagina com a pesquisa" style="html=1;verticalAlign=bottom;endArrow=block;edgeStyle=elbowEdgeStyle;elbow=vertical;curved=0;rounded=0;" parent="1" edge="1">
          <mxGeometry x="0.2444" relative="1" as="geometry">
            <mxPoint x="285" y="320" as="sourcePoint" />
            <Array as="points">
              <mxPoint x="330" y="320" />
            </Array>
            <mxPoint x="149.99999999999994" y="320" as="targetPoint" />
            <mxPoint as="offset" />
          </mxGeometry>
        </mxCell>
      </root>
    </mxGraphModel>
  </diagram>
</mxfile>
